<svg width="52" height="52" viewBox="0 0 52 52" fill="none" xmlns="http://www.w3.org/2000/svg">
<path d="M11.9956 24.0781C1.85563 24.7931 1.85563 39.5481 11.9956 40.2631H16.1557" stroke="#292D32" stroke-width="2.5" stroke-miterlimit="10" stroke-linecap="round" stroke-linejoin="round"/>
<path d="M12.1095 24.0853C5.15445 4.73692 34.491 -2.99807 37.8493 17.3253C47.231 18.5169 51.0228 31.0186 43.9161 37.2369C41.7494 39.2086 38.9544 40.2919 36.0294 40.2703H35.8343" stroke="#292D32" stroke-width="2.5" stroke-miterlimit="10" stroke-linecap="round" stroke-linejoin="round"/>
<path d="M36.8385 35.8177C36.8385 37.421 36.4918 38.9377 35.8418 40.281C35.6685 40.671 35.4736 41.0394 35.2569 41.3861C33.3936 44.5277 29.9485 46.651 26.0052 46.651C22.0619 46.651 18.6168 44.5277 16.7535 41.3861C16.5368 41.0394 16.3419 40.671 16.1686 40.281C15.5186 38.9377 15.1719 37.421 15.1719 35.8177C15.1719 29.8377 20.0252 24.9844 26.0052 24.9844C31.9852 24.9844 36.8385 29.8377 36.8385 35.8177Z" stroke="#292D32" stroke-width="2.5" stroke-miterlimit="10" stroke-linecap="round" stroke-linejoin="round"/>
<path d="M22.6172 35.8186L24.7622 37.9636L29.3772 33.6953" stroke="#292D32" stroke-width="2.5" stroke-linecap="round" stroke-linejoin="round"/>
</svg>
