<svg width="52" height="52" viewBox="0 0 52 52" fill="none" xmlns="http://www.w3.org/2000/svg">
<path d="M26.0026 47.6654C37.9688 47.6654 47.6693 37.9649 47.6693 25.9987C47.6693 14.0325 37.9688 4.33203 26.0026 4.33203C14.0364 4.33203 4.33594 14.0325 4.33594 25.9987C4.33594 37.9649 14.0364 47.6654 26.0026 47.6654Z" stroke="black" stroke-width="2.5" stroke-linecap="round" stroke-linejoin="round"/>
<path d="M17.3302 6.5H19.4969C15.2719 19.1533 15.2719 32.8467 19.4969 45.5H17.3302" stroke="black" stroke-width="2.5" stroke-linecap="round" stroke-linejoin="round"/>
<path d="M32.5 6.5C36.725 19.1533 36.725 32.8467 32.5 45.5" stroke="black" stroke-width="2.5" stroke-linecap="round" stroke-linejoin="round"/>
<path d="M6.5 34.6667V32.5C19.1533 36.725 32.8467 36.725 45.5 32.5V34.6667" stroke="black" stroke-width="2.5" stroke-linecap="round" stroke-linejoin="round"/>
<path d="M6.5 19.5047C19.1533 15.2797 32.8467 15.2797 45.5 19.5047" stroke="black" stroke-width="2.5" stroke-linecap="round" stroke-linejoin="round"/>
</svg>
