<svg width="53" height="52" viewBox="0 0 53 52" fill="none" xmlns="http://www.w3.org/2000/svg">
<path d="M18.9193 41.1654H17.8359C9.16927 41.1654 4.83594 38.9987 4.83594 28.1654V17.332C4.83594 8.66536 9.16927 4.33203 17.8359 4.33203H35.1693C43.8359 4.33203 48.1693 8.66536 48.1693 17.332V28.1654C48.1693 36.832 43.8359 41.1654 35.1693 41.1654H34.0859C33.4143 41.1654 32.7643 41.4904 32.3526 42.032L29.1026 46.3654C27.6726 48.272 25.3326 48.272 23.9026 46.3654L20.6526 42.032C20.3059 41.5554 19.5043 41.1654 18.9193 41.1654Z" stroke="black" stroke-width="2.5" stroke-miterlimit="10" stroke-linecap="round" stroke-linejoin="round"/>
<path d="M35.1574 23.8333H35.1768" stroke="black" stroke-width="2.5" stroke-linecap="round" stroke-linejoin="round"/>
<path d="M26.4855 23.8333H26.505" stroke="black" stroke-width="2.5" stroke-linecap="round" stroke-linejoin="round"/>
<path d="M17.8214 23.8333H17.8409" stroke="black" stroke-width="2.5" stroke-linecap="round" stroke-linejoin="round"/>
</svg>
