<svg width="52" height="52" viewBox="0 0 52 52" fill="none" xmlns="http://www.w3.org/2000/svg">
<path d="M30.8958 33.4492H20.0625" stroke="black" stroke-width="2.5" stroke-miterlimit="10" stroke-linecap="round" stroke-linejoin="round"/>
<path d="M25.4844 28.168V39.0013" stroke="black" stroke-width="2.5" stroke-miterlimit="10" stroke-linecap="round" stroke-linejoin="round"/>
<path d="M27.4333 5.45466L27.3683 5.60633L21.085 20.188H14.91C13.4367 20.188 12.0283 20.4913 10.75 21.033L14.5417 11.9763L14.6283 11.7597L14.78 11.413C14.8233 11.283 14.8667 11.153 14.9317 11.0447C17.77 4.47966 20.9767 2.98466 27.4333 5.45466Z" stroke="black" stroke-width="2.5" stroke-linecap="round" stroke-linejoin="round"/>
<path d="M39.1048 20.6276C38.1298 20.3243 37.0898 20.1943 36.0498 20.1943H21.0781L27.3615 5.6126L27.4265 5.46094C27.7515 5.56927 28.0548 5.72094 28.3798 5.85094L33.1681 7.86594C35.8331 8.97094 37.6965 10.1193 38.8231 11.5059C39.0398 11.7659 39.2131 12.0043 39.3648 12.2859C39.5598 12.5893 39.7115 12.8926 39.7981 13.2176C39.8848 13.4126 39.9498 13.6076 39.9931 13.7809C40.5781 15.6009 40.2315 17.8326 39.1048 20.6276Z" stroke="black" stroke-width="2.5" stroke-linecap="round" stroke-linejoin="round"/>
<path d="M46.631 30.7686V34.9936C46.631 35.427 46.6094 35.8603 46.5877 36.2936C46.176 43.8553 41.951 47.6686 33.9344 47.6686H17.0344C16.5144 47.6686 15.9944 47.6253 15.496 47.5603C8.60604 47.1053 4.92271 43.422 4.46771 36.532C4.40271 36.0336 4.35938 35.5136 4.35938 34.9936V30.7686C4.35938 26.4136 7.00271 22.6653 10.7727 21.0403C12.0727 20.4986 13.4594 20.1953 14.9327 20.1953H36.0794C37.141 20.1953 38.181 20.347 39.1344 20.6286C43.446 21.9503 46.631 25.9803 46.631 30.7686Z" stroke="black" stroke-width="2.5" stroke-linecap="round" stroke-linejoin="round"/>
<path d="M14.5409 11.9766L10.7493 21.0332C6.97927 22.6582 4.33594 26.4066 4.33594 30.7616V24.4132C4.33594 18.2599 8.7126 13.1249 14.5409 11.9766Z" stroke="black" stroke-width="2.5" stroke-linecap="round" stroke-linejoin="round"/>
<path d="M46.6217 24.4126V30.7609C46.6217 25.9943 43.4583 21.9426 39.125 20.6426C40.2517 17.8259 40.5767 15.6159 40.035 13.7743C39.9917 13.5793 39.9267 13.3843 39.84 13.2109C43.87 15.2909 46.6217 19.5593 46.6217 24.4126Z" stroke="black" stroke-width="2.5" stroke-linecap="round" stroke-linejoin="round"/>
</svg>
